<svg width="36" height="36" viewBox="0 0 36 36" fill="none" xmlns="http://www.w3.org/2000/svg">
<mask id="mask0" style="mask-type:alpha" maskUnits="userSpaceOnUse" x="0" y="0" width="36" height="36">
<circle cx="18.1243" cy="17.5292" r="17.5292" fill="#FFC145"/>
</mask>
<g mask="url(#mask0)">
<path d="M28.9569 37.1468V33.566C28.9569 31.6666 28.3863 29.845 27.3705 28.5019C26.3547 27.1588 24.9771 26.4043 23.5405 26.4043H12.7077C11.2712 26.4043 9.89352 27.1588 8.87775 28.5019C7.86198 29.845 7.29132 31.6666 7.29132 33.566V37.1468" fill="#197BBD"/>
<path d="M18.1228 20.9871C21.1142 20.9871 23.5392 18.5621 23.5392 15.5707C23.5392 12.5793 21.1142 10.1543 18.1228 10.1543C15.1314 10.1543 12.7064 12.5793 12.7064 15.5707C12.7064 18.5621 15.1314 20.9871 18.1228 20.9871Z" fill="white"/>
</g>
</svg>
