<svg width="213" height="142" viewBox="0 0 213 142" fill="none" xmlns="http://www.w3.org/2000/svg">
<path d="M105.348 114.813C105.348 143.67 81.9552 167.063 53.0988 167.063C24.2424 167.063 0.84967 143.67 0.84967 114.813C0.84967 99.5994 7.35231 85.904 17.7299 76.3552C27.0354 67.7928 39.4565 62.5644 53.0988 62.5644C81.9552 62.5644 105.348 85.9571 105.348 114.813Z" fill="white" fill-opacity="0.12"/>
<path d="M105.348 114.813C105.348 143.67 81.9552 167.063 53.0988 167.063H203.893C175.037 167.063 151.644 143.67 151.644 114.813C151.644 111.127 152.026 107.531 152.752 104.06C150.291 104.416 147.775 104.6 145.216 104.6C119.855 104.6 98.7143 86.5309 93.9648 62.5644H59.8824H53.0988C81.9552 62.5644 105.348 85.9571 105.348 114.813Z" fill="white" fill-opacity="0.12"/>
<path d="M93.9648 62.5644C93.3102 59.2612 92.967 55.8459 92.967 52.3505C92.967 47.7599 93.559 43.3075 94.6709 39.0656C90.3048 46.8985 77.2345 62.5644 59.8824 62.5644H93.9648Z" fill="white" fill-opacity="0.12"/>
<path fill-rule="evenodd" clip-rule="evenodd" d="M203.893 167.063C232.75 167.063 256.142 143.67 256.142 114.813C256.142 85.9571 232.75 62.5644 203.893 62.5644C201.334 62.5644 198.818 62.7484 196.357 63.1038C191.904 84.3921 174.493 100.92 152.752 104.06C152.026 107.531 151.644 111.127 151.644 114.813C151.644 143.67 175.037 167.063 203.893 167.063Z" fill="white" fill-opacity="0.12"/>
<path d="M196.357 63.1038C191.904 84.3921 174.493 100.92 152.752 104.06C157.206 82.7719 174.616 66.2445 196.357 63.1038Z" fill="white" fill-opacity="0.12"/>
<path d="M197.465 52.3505C197.465 23.4942 174.072 0.10144 145.216 0.10144C120.95 0.10144 100.548 16.6433 94.6709 39.0656C93.559 43.3075 92.967 47.7599 92.967 52.3505C92.967 55.8459 93.3102 59.2612 93.9648 62.5644C98.7143 86.5309 119.855 104.6 145.216 104.6C147.775 104.6 150.291 104.416 152.752 104.06C157.206 82.7719 174.616 66.2445 196.357 63.1038C197.084 59.6335 197.465 56.0366 197.465 52.3505Z" fill="white" fill-opacity="0.12"/>
</svg>
