<svg width="144" height="53" viewBox="0 0 144 53" fill="none" xmlns="http://www.w3.org/2000/svg">
<path d="M112.103 23.4979C112.103 29.4089 107.231 34.2007 101.22 34.2007C95.2094 34.2007 90.3369 29.4089 90.3369 23.4979C90.3369 20.3814 91.6914 17.576 93.8529 15.62C95.7912 13.8661 98.3784 12.795 101.22 12.795C107.231 12.795 112.103 17.5869 112.103 23.4979Z" fill="#D15842"/>
<path d="M143.512 23.4979C143.512 29.4089 138.64 34.2007 132.629 34.2007C126.619 34.2007 121.746 29.4089 121.746 23.4979C121.746 22.7428 121.826 22.006 121.977 21.2951C123.01 16.4409 127.387 12.795 132.629 12.795C138.64 12.795 143.512 17.5869 143.512 23.4979Z" fill="#D15842"/>
<path d="M131.29 10.7028C131.29 16.0896 127.244 20.5469 121.977 21.2951C121.464 21.368 120.94 21.4056 120.407 21.4056C115.125 21.4056 110.721 17.7044 109.732 12.795C109.596 12.1184 109.524 11.4188 109.524 10.7028C109.524 9.76246 109.648 8.85043 109.879 7.9815C111.103 3.38847 115.353 0 120.407 0C126.418 0 131.29 4.79182 131.29 10.7028Z" fill="#D15842"/>
<path d="M112.103 23.4979C112.103 29.4089 107.231 34.2007 101.22 34.2007H132.629C126.619 34.2007 121.746 29.4089 121.746 23.4979C121.746 22.7428 121.826 22.006 121.977 21.2951C121.464 21.368 120.94 21.4056 120.407 21.4056C115.125 21.4056 110.721 17.7044 109.732 12.795H102.633H101.22C107.231 12.795 112.103 17.5869 112.103 23.4979Z" fill="#D15842"/>
<path d="M109.732 12.795C109.596 12.1184 109.524 11.4188 109.524 10.7028C109.524 9.76246 109.648 8.85043 109.879 7.9815C108.97 9.58602 106.247 12.795 102.633 12.795H109.732Z" fill="#D15842"/>
<path d="M32.8639 36.2451C32.8639 45.1699 25.5071 52.4049 16.4319 52.4049C7.35683 52.4049 0 45.1699 0 36.2451C0 31.5397 2.04503 27.3039 5.30871 24.3506C8.23521 21.7024 12.1416 20.0854 16.4319 20.0854C25.5071 20.0854 32.8639 27.3203 32.8639 36.2451Z" fill="#D15842"/>
<path d="M80.2876 36.2451C80.2876 45.1699 72.9308 52.4049 63.8557 52.4049C54.7806 52.4049 47.4237 45.1699 47.4237 36.2451C47.4237 35.1051 47.5438 33.9927 47.7721 32.9193C49.3313 25.59 55.9398 20.0854 63.8557 20.0854C72.9308 20.0854 80.2876 27.3203 80.2876 36.2451Z" fill="#D15842"/>
<path d="M61.8341 16.9264C61.8341 25.0597 55.7242 31.7896 47.7721 32.9193C46.9982 33.0293 46.2069 33.0862 45.4021 33.0862C37.4263 33.0862 30.7777 27.4978 29.284 20.0854C29.0781 19.0637 28.9702 18.0075 28.9702 16.9264C28.9702 15.5066 29.1564 14.1295 29.5061 12.8176C31.3544 5.88272 37.7707 0.766602 45.4021 0.766602C54.4772 0.766602 61.8341 8.00158 61.8341 16.9264Z" fill="#D15842"/>
<path d="M32.8639 36.2451C32.8639 45.1699 25.5071 52.4049 16.4319 52.4049H63.8557C54.7806 52.4049 47.4237 45.1699 47.4237 36.2451C47.4237 35.1051 47.5438 33.9927 47.7721 32.9193C46.9982 33.0293 46.2069 33.0862 45.4021 33.0862C37.4263 33.0862 30.7777 27.4978 29.284 20.0854H18.5653H16.4319C25.5071 20.0854 32.8639 27.3203 32.8639 36.2451Z" fill="#D15842"/>
<path d="M29.284 20.0854C29.0781 19.0637 28.9702 18.0075 28.9702 16.9264C28.9702 15.5066 29.1564 14.1295 29.5061 12.8176C28.1329 15.2402 24.0224 20.0854 18.5653 20.0854H29.284Z" fill="#D15842"/>
</svg>
