<svg xmlns="http://www.w3.org/2000/svg" width="45" height="43" fill="none" style=""><rect id="backgroundrect" width="100%" height="100%" x="0" y="0" fill="none" stroke="none"/>





<defs>
<filter id="filter0_ddd" x="0.5944820046424866" y="0" width="92.80400085449219" height="91.44139862060547" filterUnits="userSpaceOnUse" color-interpolation-filters="sRGB">
<feFlood flood-opacity="0" result="BackgroundImageFix"/>
<feColorMatrix in="SourceAlpha" type="matrix" values="0 0 0 0 0 0 0 0 0 0 0 0 0 0 0 0 0 0 127 0" result="hardAlpha"/>
<feOffset/>
<feGaussianBlur stdDeviation="0.5"/>
<feColorMatrix type="matrix" values="0 0 0 0 0 0 0 0 0 0 0 0 0 0 0 0 0 0 0.04 0"/>
<feBlend mode="normal" in2="BackgroundImageFix" result="effect1_dropShadow"/>
<feColorMatrix in="SourceAlpha" type="matrix" values="0 0 0 0 0 0 0 0 0 0 0 0 0 0 0 0 0 0 127 0" result="hardAlpha"/>
<feOffset dy="2"/>
<feGaussianBlur stdDeviation="3"/>
<feColorMatrix type="matrix" values="0 0 0 0 0 0 0 0 0 0 0 0 0 0 0 0 0 0 0.04 0"/>
<feBlend mode="normal" in2="effect1_dropShadow" result="effect2_dropShadow"/>
<feColorMatrix in="SourceAlpha" type="matrix" values="0 0 0 0 0 0 0 0 0 0 0 0 0 0 0 0 0 0 127 0" result="hardAlpha"/>
<feOffset dy="16"/>
<feGaussianBlur stdDeviation="12"/>
<feColorMatrix type="matrix" values="0 0 0 0 0 0 0 0 0 0 0 0 0 0 0 0 0 0 0.06 0"/>
<feBlend mode="normal" in2="effect2_dropShadow" result="effect3_dropShadow"/>
<feBlend mode="normal" in="SourceGraphic" in2="effect3_dropShadow" result="shape"/>
</filter>
</defs>
<g class="currentLayer" style=""><title>Layer 1</title><g filter="url(#filter0_ddd)" id="svg_1" class="">
<rect x="0" y="0" width="44.80390167236328" height="43.44139862060547" rx="3" fill="#FFEADA" id="svg_2"/>
</g><path d="M10.874300411987306,30.549 C10.874300411987306,30.748800000000003 10.983300411987308,30.9377 11.167000411987303,31.045699999999997 C12.527500411987305,31.855600000000003 17.326500411987304,33.443 23.009400411987308,33.443 C28.703900411987306,33.443 33.5086004119873,31.8502 34.869100411987304,31.045699999999997 C35.052800411987306,30.9377 35.161900411987304,30.748800000000003 35.161900411987304,30.549 V19.8854 C35.121700411987305,17.0777 35.55220041198731,16.6512 35.1561004119873,16.753800000000002 L23.440000411987306,20.4739 C23.319400411987303,20.5063 22.441100411987307,20.3875 22.320600411987307,20.3551 L11.012000411987302,16.7484 C11.012000411987302,16.7484 10.874300411987306,19.4912 10.874300411987306,19.88 V30.549 V30.549 z" fill="#F9DB98" id="svg_3" class=""/><path d="M24.312600411987304,27.034100000000002 V29.814700000000002 C24.312600411987304,30.468000000000004 23.7271004119873,30.991799999999998 23.026700411987306,30.954 C22.383800411987302,30.916200000000003 21.890100411987305,30.4032 21.890100411987305,29.798499999999997 V27.034100000000002 C21.321800411987304,26.6723 20.948700411987303,26.056800000000003 20.948700411987303,25.360300000000002 C20.948700411987303,24.2427 21.9131004119873,23.3356 23.101400411987306,23.3356 C24.28960041198731,23.3356 25.254000411987306,24.2427 25.254000411987306,25.360300000000002 C25.254000411987306,26.056800000000003 24.880900411987305,26.6723 24.312600411987304,27.034100000000002 z" fill="#595957" id="svg_4" class=""/><path d="M24.519100411987303,25.8408 L28.979400411987307,26.6021 C29.048200411987303,27.3958 29.696900411987308,28.0816 30.5867004119873,28.189500000000002 C31.528100411987303,28.308300000000003 32.4236004119873,27.7252 32.6417004119873,26.850499999999997 C32.882800411987304,25.873199999999997 32.19970041198731,24.9122 31.166500411987307,24.734 C30.316900411987305,24.5882 29.496000411987303,25.0148 29.151600411987303,25.722099999999998 L21.8900004119873,24.480200000000004 L21.717800411987305,25.3549 L21.723500411987303,25.360300000000002 L24.519100411987303,25.8408 zM30.994200411987308,25.619500000000002 C31.487900411987304,25.7059 31.815100411987302,26.148600000000002 31.729000411987307,26.612900000000003 C31.63720041198731,27.0773 31.166400411987304,27.384999999999998 30.672800411987303,27.298699999999997 C30.179100411987307,27.2123 29.8519004119873,26.7695 29.938000411987304,26.3052 C30.029900411987306,25.8408 30.500600411987307,25.533099999999997 30.994200411987308,25.619500000000002 z" fill="#595957" id="svg_5" class=""/><path d="M42.1824004119873,15.5714 L41.57390041198731,15.4148 C41.57390041198731,15.4148 41.57390041198731,15.4148 41.568200411987306,15.4148 L38.520000411987304,14.621099999999998 C38.51430041198731,14.621099999999998 38.5028004119873,14.6157 38.49700041198731,14.6157 L30.127500411987306,12.4668 L24.278100411987303,10.9604 C24.266600411987305,10.9604 24.243600411987302,10.954999999999998 24.209200411987304,10.954999999999998 C23.474400411987304,10.793 22.705200411987306,10.793 21.970400411987306,10.954999999999998 C21.941700411987306,10.954999999999998 21.924500411987303,10.9604 21.918800411987306,10.9604 L4.525400411987306,15.4148 C4.502400411987306,15.420200000000001 4.479500411987306,15.436399999999999 4.456500411987303,15.457999999999998 L4.020200411987304,15.5714 C3.2338004119873034,15.7711 3.2338004119873034,16.8186 4.020200411987304,17.0184 L18.968200411987304,20.8411 L21.775300411987303,21.5592 C22.624900411987305,21.7752 23.520400411987303,21.7806 24.369900411987302,21.5646 H24.381400411987308 C24.38720041198731,21.5646 24.496200411987303,21.5376 24.507700411987308,21.5376 L32.1539004119873,19.5777 L42.1824004119873,17.0184 C42.9631004119873,16.824 42.9631004119873,15.776499999999999 42.1824004119873,15.5714 z" fill="#EFB802" id="svg_6" class=""/></g></svg>