<svg xmlns="http://www.w3.org/2000/svg" width="45" height="43" fill="none"><rect id="backgroundrect" width="100%" height="100%" x="0" y="0" fill="none" stroke="none"/>









<defs>
<filter id="filter0_ddd" x="0.8164060115814209" y="0" width="92.80400085449219" height="91.44139862060547" filterUnits="userSpaceOnUse" color-interpolation-filters="sRGB">
<feFlood flood-opacity="0" result="BackgroundImageFix"/>
<feColorMatrix in="SourceAlpha" type="matrix" values="0 0 0 0 0 0 0 0 0 0 0 0 0 0 0 0 0 0 127 0" result="hardAlpha"/>
<feOffset/>
<feGaussianBlur stdDeviation="0.5"/>
<feColorMatrix type="matrix" values="0 0 0 0 0 0 0 0 0 0 0 0 0 0 0 0 0 0 0.04 0"/>
<feBlend mode="normal" in2="BackgroundImageFix" result="effect1_dropShadow"/>
<feColorMatrix in="SourceAlpha" type="matrix" values="0 0 0 0 0 0 0 0 0 0 0 0 0 0 0 0 0 0 127 0" result="hardAlpha"/>
<feOffset dy="2"/>
<feGaussianBlur stdDeviation="3"/>
<feColorMatrix type="matrix" values="0 0 0 0 0 0 0 0 0 0 0 0 0 0 0 0 0 0 0.04 0"/>
<feBlend mode="normal" in2="effect1_dropShadow" result="effect2_dropShadow"/>
<feColorMatrix in="SourceAlpha" type="matrix" values="0 0 0 0 0 0 0 0 0 0 0 0 0 0 0 0 0 0 127 0" result="hardAlpha"/>
<feOffset dy="16"/>
<feGaussianBlur stdDeviation="12"/>
<feColorMatrix type="matrix" values="0 0 0 0 0 0 0 0 0 0 0 0 0 0 0 0 0 0 0.06 0"/>
<feBlend mode="normal" in2="effect2_dropShadow" result="effect3_dropShadow"/>
<feBlend mode="normal" in="SourceGraphic" in2="effect3_dropShadow" result="shape"/>
</filter>
</defs>
<g class="currentLayer" style=""><title>Layer 1</title><g filter="url(#filter0_ddd)" id="svg_1" class="">
<rect x="0" y="0" width="44.80390167236328" height="43.44139862060547" rx="3" fill="#DDF9E4" id="svg_2"/>
</g><path d="M22.651699472045898,14.023399999999999 C18.399899472045895,13.994900000000001 14.541799472045895,15.4191 11.5194994720459,17.3446 C8.497299472045896,19.2701 6.2865994720459,21.6855 5.335699472045899,23.8332 C5.256899472045898,24.015500000000003 5.256899472045898,24.220599999999997 5.335699472045899,24.402900000000002 C6.2865994720459,26.550600000000003 8.4911994720459,28.954700000000003 11.5194994720459,30.880200000000002 C14.547899472045899,32.8057 18.4059994720459,34.2413 22.651699472045898,34.2128 C26.9034994720459,34.2413 30.7615994720459,32.8057 33.783899472045896,30.880200000000002 C36.8122994720459,28.954700000000003 39.0168994720459,26.550600000000003 39.9677994720459,24.402900000000002 C40.046499472045895,24.220599999999997 40.046499472045895,24.015500000000003 39.9677994720459,23.8332 C39.5680994720459,22.9274 38.9381994720459,21.9875 38.126599472045896,21.0475 C37.7146994720459,20.5747 37.1150994720459,19.9309 36.3216994720459,19.2359 C34.4804994720459,17.6123 29.647199472045898,14.0689 22.651699472045898,14.023399999999999 z" fill="#F1F0F1" id="svg_3" class=""/><path d="M22.651599472045902,17.0654 C18.514899472045897,17.0654 15.1352994720459,20.2215 15.1352994720459,24.1124 C15.1352994720459,28.003300000000003 18.514899472045897,31.170699999999997 22.651599472045902,31.170699999999997 C26.7882994720459,31.170699999999997 30.1557994720459,28.003300000000003 30.1557994720459,24.1124 C30.1557994720459,20.2215 26.7882994720459,17.0654 22.651599472045902,17.0654 z" fill="#47AE4C" id="svg_4" class=""/><path d="M21.955199472045898,7.096 C21.446399472045897,7.1644000000000005 21.064799472045898,7.6942 21.076899472045902,8.315100000000001 V10.730599999999999 C21.0708994720459,11.3914 21.506999472045898,11.938300000000002 22.052099472045896,11.943999999999999 C22.5971994720459,11.9497 23.0453994720459,11.4256 23.0513994720459,10.764800000000001 C23.0513994720459,10.7534 23.0513994720459,10.742 23.0513994720459,10.730599999999999 V8.315100000000001 C23.063499472045898,7.654299999999999 22.633499472045898,7.1074 22.0823994720459,7.090299999999999 C22.0399994720459,7.090299999999999 21.9975994720459,7.090299999999999 21.955199472045898,7.096 z" fill="#585857" id="svg_5" class=""/><path d="M31.9729994720459,8.338000000000001 C31.4702994720459,8.229700000000001 30.9130994720459,8.5943 30.6889994720459,9.1754 L29.762299472045896,11.4256 C29.5018994720459,12.0409 29.7017994720459,12.696000000000002 30.204499472045896,12.889700000000001 C30.7071994720459,13.083400000000001 31.330999472045896,12.741600000000002 31.5913994720459,12.1263 C31.597499472045897,12.114899999999999 31.597499472045897,12.1035 31.6035994720459,12.092099999999999 L32.5301994720459,9.841899999999999 C32.7966994720459,9.226700000000001 32.6028994720459,8.5715 32.1001994720459,8.3721 C32.0577994720459,8.360700000000001 32.0153994720459,8.3493 31.9729994720459,8.338000000000001 z" fill="#585857" id="svg_6" class=""/><path d="M3.609499472045897,13.784099999999999 C3.2944994720458993,14.1658 3.4034994720458975,14.7924 3.8698994720458977,15.236699999999999 L5.644499472045897,16.98 C6.122999472045898,17.4642 6.837699472045898,17.572400000000002 7.243499472045897,17.2249 C7.6431994720459,16.8774 7.576599472045899,16.2052 7.098099472045899,15.721 C7.0920994720458985,15.7153 7.079999472045898,15.7039 7.073899472045898,15.6982 L5.299299472045899,13.954999999999998 C4.820799472045898,13.4707 4.106099472045898,13.3568 3.7002994720458986,13.698599999999999 C3.669999472045898,13.7214 3.6397994720458975,13.755600000000001 3.609499472045897,13.784099999999999 z" fill="#585857" id="svg_7" class=""/><path d="M40.2765994720459,13.2087 C39.84649947204589,12.9409 39.19239947204589,13.1005 38.7623994720459,13.5733 L37.0604994720459,15.3792 C36.5879994720459,15.8691 36.5334994720459,16.547 36.933299472045896,16.8945 C37.3329994720459,17.242 38.041599472045895,17.1224 38.5140994720459,16.6325 C38.5200994720459,16.6268 38.532199472045896,16.6154 38.5382994720459,16.6097 L40.2401994720459,14.803799999999999 C40.712599472045895,14.3139 40.77929947204589,13.6359 40.37949947204589,13.282699999999998 C40.343199472045896,13.260000000000002 40.3128994720459,13.2315 40.2765994720459,13.2087 z" fill="#585857" id="svg_8" class=""/><path d="M11.773999472045901,8.862100000000002 C11.343999472045901,9.1298 11.2409994720459,9.7622 11.5316994720459,10.314800000000002 L12.6339994720459,12.4966 C12.930799472045898,13.0948 13.5727994720459,13.413799999999998 14.069499472045898,13.203 C14.566099472045899,12.9923 14.729699472045901,12.331399999999999 14.432899472045897,11.7333 C14.4267994720459,11.721900000000002 14.4207994720459,11.7105 14.414699472045896,11.704799999999999 L13.3184994720459,9.517199999999999 C13.027699472045896,8.9134 12.3856994720459,8.5943 11.8890994720459,8.799399999999999 C11.846699472045898,8.822199999999999 11.810299472045898,8.839300000000001 11.773999472045901,8.862100000000002 z" fill="#585857" id="svg_9" class=""/><path d="M19.544599472045896,23.3718 C19.6172994720459,23.104 19.726299472045902,22.8591 19.859499472045897,22.6312 C19.992799472045895,23.1097 20.386499472045898,23.5085 20.931599472045896,23.6395 C21.7249994720459,23.8275 22.5425994720459,23.3718 22.7424994720459,22.6255 C22.8999994720459,22.0501 22.6395994720459,21.4634 22.1549994720459,21.1387 C22.572899472045897,21.076 23.0089994720459,21.0874 23.445099472045897,21.1956 C25.1651994720459,21.6058 26.206899472045897,23.2465 25.7647994720459,24.864400000000003 C25.328699472045898,26.4822 23.584399472045895,27.450699999999998 21.8642994720459,27.0405 C20.1380994720459,26.6304 19.1084994720459,24.9897 19.544599472045896,23.3718 z" fill="#585857" id="svg_10" class=""/></g></svg>